<svg width="61" height="49" viewBox="0 0 61 49" fill="none" xmlns="http://www.w3.org/2000/svg">
<rect width="61" height="49" rx="24.5" fill="#8AB752"/>
<path d="M31.6997 26.6V21.8" stroke="black" stroke-width="1.2"/>
<path d="M31.6997 19.4V17" stroke="black" stroke-width="1.2"/>
<path d="M31.6997 31.4V29" stroke="black" stroke-width="1.2"/>
<path d="M22.7817 17C19.6323 17 19.3272 21.2 21.0144 21.8L23.9065 22.4V27.2H22.7817C20.982 26.72 20.5322 28.2 20.5322 29C20.0823 31.4 22.2194 32 23.3441 32H40.2157C42.0153 31.52 42.0903 29.8 41.9028 29C41.9028 27.56 40.0282 27.6 39.0909 27.8V25.4V22.4C40.5636 22.7142 41.3972 21.3996 41.9028 20.6M22.7817 17C25.931 17 34.9667 17 39.0909 17M22.7817 17H39.0909M39.0909 17C40.0282 17 41.9028 17.6 41.9028 20C41.9028 20.6761 41.8559 20.4331 41.9028 20.6M41.9028 20.6C42.1696 20.1782 41.7954 19.7454 41.8601 19.4C41.9795 20.2013 41.7302 18.5042 41.9028 20.6Z" stroke="black" stroke-width="1.2"/>
</svg>
