<svg width="33" height="23" viewBox="0 0 33 23" fill="none" xmlns="http://www.w3.org/2000/svg">
<path d="M17.0859 14.0401V7.32007" stroke="#F5F5F5" stroke-width="1.2"/>
<path d="M17.0859 3.9601V0.600098" stroke="#F5F5F5" stroke-width="1.2"/>
<path d="M17.0859 20.7601V17.4001" stroke="#F5F5F5" stroke-width="1.2"/>
<path d="M4.5196 0.600098C0.0818699 0.600098 -0.348024 6.4801 2.02929 7.3201L6.1046 8.1601V14.8801H4.5196C1.98368 14.2081 1.34982 16.2801 1.34989 17.4001C0.716001 20.7601 3.72728 21.6001 5.31215 21.6001H29.0857C31.6216 20.9281 31.7272 18.5201 31.4631 17.4001C31.4631 15.3841 28.8216 15.4401 27.5008 15.7201V12.3601V8.1601C29.5759 8.60002 30.7505 6.7595 31.4631 5.6401M4.5196 0.600098C8.95734 0.600098 21.6895 0.600098 27.5008 0.600098M4.5196 0.600098H27.5008M27.5008 0.600098C28.8216 0.600098 31.4631 1.4401 31.4631 4.8001C31.4631 5.74663 31.3969 5.40648 31.4631 5.6401M31.4631 5.6401C31.839 5.04955 31.3116 4.4436 31.4029 3.9601C31.5711 5.08195 31.2197 2.70595 31.4631 5.6401Z" stroke="#F5F5F5" stroke-width="1.2"/>
</svg>
